<svg width="589" height="179" viewBox="0 0 589 179" fill="none" xmlns="http://www.w3.org/2000/svg">
<path d="M55.68 142.6C48.8533 142.6 42.3467 141.533 36.16 139.4C29.9733 137.267 24.5867 134.28 20 130.44C15.4133 126.6 12.0533 122.173 9.92 117.16C8.85333 114.92 8.85333 112.84 9.92 110.92C11.0933 109 13.0133 107.773 15.68 107.24C17.6 106.813 19.4667 107.133 21.28 108.2C23.2 109.16 24.64 110.653 25.6 112.68C26.88 115.347 28.96 117.8 31.84 120.04C34.8267 122.28 38.4 124.093 42.56 125.48C46.72 126.867 51.0933 127.56 55.68 127.56C60.8 127.56 65.4933 126.76 69.76 125.16C74.1333 123.56 77.6533 121.267 80.32 118.28C82.9867 115.187 84.32 111.4 84.32 106.92C84.32 101.267 82.08 96.2 77.6 91.72C73.2267 87.24 65.9733 84.4667 55.84 83.4C42.6133 82.12 32.2133 78.2267 24.64 71.72C17.0667 65.2133 13.28 57.16 13.28 47.56C13.28 40.52 15.2533 34.5467 19.2 29.64C23.1467 24.7333 28.48 21 35.2 18.44C42.0267 15.88 49.6 14.6 57.92 14.6C64.4267 14.6 70.08 15.5067 74.88 17.32C79.7867 19.1333 84.0533 21.64 87.68 24.84C91.3067 28.04 94.4533 31.8267 97.12 36.2C98.6133 38.5467 99.2 40.7867 98.88 42.92C98.6667 44.9467 97.6533 46.5467 95.84 47.72C93.8133 49 91.6267 49.2667 89.28 48.52C86.9333 47.7733 85.1733 46.3867 84 44.36C82.2933 41.2667 80.2133 38.6533 77.76 36.52C75.3067 34.3867 72.4267 32.7333 69.12 31.56C65.8133 30.28 61.92 29.64 57.44 29.64C49.5467 29.5333 42.9333 31.0267 37.6 34.12C32.2667 37.1067 29.6 41.7467 29.6 48.04C29.6 51.24 30.4 54.3333 32 57.32C33.7067 60.2 36.7467 62.7067 41.12 64.84C45.6 66.9733 52 68.4667 60.32 69.32C73.0133 70.6 82.88 74.4933 89.92 81C97.0667 87.4 100.64 95.88 100.64 106.44C100.64 112.52 99.36 117.8 96.8 122.28C94.3467 126.76 90.9867 130.547 86.72 133.64C82.56 136.627 77.76 138.867 72.32 140.36C66.9867 141.853 61.44 142.6 55.68 142.6ZM119.916 141C117.57 141 115.596 140.253 113.996 138.76C112.503 137.16 111.756 135.187 111.756 132.84V61.64C111.756 59.1867 112.503 57.2133 113.996 55.72C115.596 54.2267 117.57 53.48 119.916 53.48C122.37 53.48 124.343 54.2267 125.836 55.72C127.33 57.2133 128.076 59.1867 128.076 61.64V132.84C128.076 135.187 127.33 137.16 125.836 138.76C124.343 140.253 122.37 141 119.916 141ZM119.916 39.24C117.036 39.24 114.53 38.2267 112.396 36.2C110.37 34.0667 109.356 31.56 109.356 28.68C109.356 25.8 110.37 23.3467 112.396 21.32C114.53 19.1867 117.036 18.12 119.916 18.12C122.796 18.12 125.25 19.1867 127.276 21.32C129.41 23.3467 130.476 25.8 130.476 28.68C130.476 31.56 129.41 34.0667 127.276 36.2C125.25 38.2267 122.796 39.24 119.916 39.24ZM219.718 178.44C217.264 178.44 215.238 177.64 213.638 176.04C212.144 174.547 211.398 172.627 211.398 170.28V127.08C207.771 131.56 203.291 135.133 197.957 137.8C192.624 140.36 186.811 141.64 180.517 141.64C172.731 141.64 165.744 139.72 159.557 135.88C153.371 131.933 148.464 126.653 144.837 120.04C141.317 113.32 139.557 105.747 139.557 97.32C139.557 88.8933 141.477 81.32 145.317 74.6C149.264 67.88 154.544 62.6 161.157 58.76C167.877 54.8133 175.398 52.84 183.718 52.84C192.037 52.84 199.504 54.8133 206.117 58.76C212.731 62.6 217.958 67.88 221.798 74.6C225.744 81.32 227.718 88.8933 227.718 97.32V170.28C227.718 172.627 226.971 174.547 225.478 176.04C223.984 177.64 222.064 178.44 219.718 178.44ZM183.718 127.24C189.158 127.24 194.011 125.96 198.278 123.4C202.544 120.733 205.904 117.16 208.357 112.68C210.811 108.093 212.038 102.973 212.038 97.32C212.038 91.56 210.811 86.44 208.357 81.96C205.904 77.3733 202.544 73.8 198.278 71.24C194.011 68.5733 189.158 67.24 183.718 67.24C178.384 67.24 173.531 68.5733 169.157 71.24C164.891 73.8 161.477 77.3733 158.917 81.96C156.464 86.44 155.237 91.56 155.237 97.32C155.237 102.973 156.464 108.093 158.917 112.68C161.477 117.16 164.891 120.733 169.157 123.4C173.531 125.96 178.384 127.24 183.718 127.24ZM250.298 178.44C247.951 178.44 245.978 177.64 244.378 176.04C242.884 174.547 242.138 172.627 242.138 170.28V97.32C242.244 88.8933 244.218 81.32 248.058 74.6C251.898 67.88 257.124 62.6 263.738 58.76C270.351 54.8133 277.818 52.84 286.138 52.84C294.564 52.84 302.084 54.8133 308.698 58.76C315.311 62.6 320.538 67.88 324.378 74.6C328.324 81.32 330.298 88.8933 330.298 97.32C330.298 105.747 328.484 113.32 324.858 120.04C321.338 126.653 316.484 131.933 310.298 135.88C304.111 139.72 297.124 141.64 289.338 141.64C283.044 141.64 277.231 140.36 271.898 137.8C266.671 135.133 262.191 131.56 258.458 127.08V170.28C258.458 172.627 257.711 174.547 256.218 176.04C254.724 177.64 252.751 178.44 250.298 178.44ZM286.138 127.24C291.578 127.24 296.431 125.96 300.698 123.4C304.964 120.733 308.324 117.16 310.778 112.68C313.338 108.093 314.618 102.973 314.618 97.32C314.618 91.56 313.338 86.44 310.778 81.96C308.324 77.3733 304.964 73.8 300.698 71.24C296.431 68.5733 291.578 67.24 286.138 67.24C280.804 67.24 275.951 68.5733 271.578 71.24C267.311 73.8 263.951 77.3733 261.498 81.96C259.044 86.44 257.818 91.56 257.818 97.32C257.818 102.973 259.044 108.093 261.498 112.68C263.951 117.16 267.311 120.733 271.578 123.4C275.951 125.96 280.804 127.24 286.138 127.24ZM349.997 141C347.651 141 345.677 140.253 344.077 138.76C342.584 137.16 341.837 135.187 341.837 132.84V61.64C341.837 59.1867 342.584 57.2133 344.077 55.72C345.677 54.2267 347.651 53.48 349.997 53.48C352.451 53.48 354.424 54.2267 355.917 55.72C357.411 57.2133 358.157 59.1867 358.157 61.64V132.84C358.157 135.187 357.411 137.16 355.917 138.76C354.424 140.253 352.451 141 349.997 141ZM349.997 39.24C347.117 39.24 344.611 38.2267 342.477 36.2C340.451 34.0667 339.437 31.56 339.437 28.68C339.437 25.8 340.451 23.3467 342.477 21.32C344.611 19.1867 347.117 18.12 349.997 18.12C352.877 18.12 355.331 19.1867 357.357 21.32C359.491 23.3467 360.557 25.8 360.557 28.68C360.557 31.56 359.491 34.0667 357.357 36.2C355.331 38.2267 352.877 39.24 349.997 39.24ZM381.959 86.28C381.959 79.88 383.505 74.1733 386.599 69.16C389.799 64.04 394.065 59.9867 399.399 57C404.732 54.0133 410.599 52.52 416.999 52.52C423.399 52.52 428.145 53.5867 431.239 55.72C434.439 57.7467 435.665 60.2 434.919 63.08C434.599 64.5733 433.959 65.7467 432.999 66.6C432.145 67.3467 431.132 67.8267 429.959 68.04C428.785 68.2533 427.505 68.2 426.119 67.88C419.292 66.4933 413.159 66.3867 407.719 67.56C402.279 68.7333 397.959 70.92 394.759 74.12C391.665 77.32 390.119 81.3733 390.119 86.28H381.959ZM382.119 141C379.559 141 377.585 140.36 376.199 139.08C374.812 137.693 374.119 135.667 374.119 133V61.48C374.119 58.92 374.812 56.9467 376.199 55.56C377.585 54.1733 379.559 53.48 382.119 53.48C384.785 53.48 386.759 54.1733 388.039 55.56C389.425 56.84 390.119 58.8133 390.119 61.48V133C390.119 135.56 389.425 137.533 388.039 138.92C386.759 140.307 384.785 141 382.119 141ZM472.245 141.64C463.392 141.64 455.498 139.773 448.565 136.04C441.738 132.2 436.352 126.973 432.405 120.36C428.565 113.64 426.645 105.96 426.645 97.32C426.645 88.5733 428.458 80.8933 432.085 74.28C435.818 67.56 440.938 62.3333 447.445 58.6C453.952 54.76 461.418 52.84 469.845 52.84C478.165 52.84 485.312 54.7067 491.285 58.44C497.258 62.0667 501.792 67.1333 504.885 73.64C508.085 80.04 509.685 87.4533 509.685 95.88C509.685 97.9067 508.992 99.6133 507.605 101C506.218 102.28 504.458 102.92 502.325 102.92H437.845V90.12H501.845L495.285 94.6C495.178 89.2667 494.112 84.52 492.085 80.36C490.058 76.0933 487.178 72.7333 483.445 70.28C479.712 67.8267 475.178 66.6 469.845 66.6C463.765 66.6 458.538 67.9333 454.165 70.6C449.898 73.2667 446.645 76.9467 444.405 81.64C442.165 86.2267 441.045 91.4533 441.045 97.32C441.045 103.187 442.378 108.413 445.045 113C447.712 117.587 451.392 121.213 456.085 123.88C460.778 126.547 466.165 127.88 472.245 127.88C475.552 127.88 478.912 127.293 482.325 126.12C485.845 124.84 488.672 123.4 490.805 121.8C492.405 120.627 494.112 120.04 495.925 120.04C497.845 119.933 499.498 120.467 500.885 121.64C502.698 123.24 503.658 125 503.765 126.92C503.872 128.84 503.018 130.493 501.205 131.88C497.578 134.76 493.045 137.107 487.605 138.92C482.272 140.733 477.152 141.64 472.245 141.64ZM547.94 141.64C540.473 141.64 533.54 140.52 527.14 138.28C520.847 135.933 515.94 133 512.42 129.48C510.82 127.773 510.127 125.853 510.34 123.72C510.66 121.48 511.727 119.667 513.54 118.28C515.673 116.573 517.753 115.88 519.78 116.2C521.913 116.413 523.727 117.32 525.22 118.92C527.033 120.947 529.913 122.867 533.86 124.68C537.913 126.387 542.393 127.24 547.3 127.24C553.487 127.24 558.18 126.227 561.38 124.2C564.687 122.173 566.393 119.56 566.5 116.36C566.607 113.16 565.06 110.387 561.86 108.04C558.767 105.693 553.06 103.773 544.74 102.28C533.967 100.147 526.127 96.9467 521.22 92.68C516.42 88.4133 514.02 83.1867 514.02 77C514.02 71.56 515.62 67.08 518.82 63.56C522.02 59.9333 526.127 57.2667 531.14 55.56C536.153 53.7467 541.38 52.84 546.82 52.84C553.86 52.84 560.1 53.96 565.54 56.2C570.98 58.44 575.3 61.5333 578.5 65.48C579.993 67.1867 580.687 69 580.58 70.92C580.473 72.7333 579.567 74.28 577.86 75.56C576.153 76.7333 574.127 77.1067 571.78 76.68C569.433 76.2533 567.46 75.2933 565.86 73.8C563.193 71.24 560.313 69.48 557.22 68.52C554.127 67.56 550.553 67.08 546.5 67.08C541.807 67.08 537.807 67.88 534.5 69.48C531.3 71.08 529.7 73.4267 529.7 76.52C529.7 78.44 530.18 80.2 531.14 81.8C532.207 83.2933 534.233 84.68 537.22 85.96C540.207 87.1333 544.58 88.3067 550.34 89.48C558.34 91.08 564.633 93.1067 569.22 95.56C573.913 98.0133 577.273 100.893 579.3 104.2C581.327 107.4 582.34 111.133 582.34 115.4C582.34 120.307 581.007 124.733 578.34 128.68C575.78 132.627 571.94 135.773 566.82 138.12C561.807 140.467 555.513 141.64 547.94 141.64Z" fill="black"/>
<circle cx="120" cy="27" r="15" fill="#6639DA"/>
<circle cx="349" cy="27" r="15" fill="#6639DA"/>
</svg>
